<?xml version="1.0" encoding="UTF-8"?>
<svg id="Layer_1" data-name="Layer 1" xmlns="http://www.w3.org/2000/svg" xmlns:xlink="http://www.w3.org/1999/xlink" viewBox="0 0 541.34 231.22">
  <defs>
    <style>
      .cls-1 {
        fill: url(#radial-gradient-3);
      }

      .cls-2 {
        fill: url(#radial-gradient-2);
      }

      .cls-3 {
        fill: url(#radial-gradient);
      }

      .cls-4 {
        fill: #0ae8aa;
      }

      .cls-5 {
        fill: #1a1a1a;
      }
    </style>
    <radialGradient id="radial-gradient" cx="99.62" cy="109.35" fx="99.62" fy="109.35" r="55.68" gradientUnits="userSpaceOnUse">
      <stop offset="0" stop-color="#2c19d8"/>
      <stop offset="1" stop-color="#1eb8ff"/>
    </radialGradient>
    <radialGradient id="radial-gradient-2" r="55.68" xlink:href="#radial-gradient"/>
    <radialGradient id="radial-gradient-3" r="55.68" xlink:href="#radial-gradient"/>
  </defs>
  <path class="cls-3" d="M114.97,57.68v15.4l30.51-2.86v37.88l15.9-.29v7.52c0,.26-.57.35-.78.37-5.89.59-12.78-.45-18.78-.02-4.13.09-8.62.39-12.75.16-11.36-.63-19.1-10.6-19.97-21.42v-35.94s5.87-.8,5.87-.8Z"/>
  <path class="cls-2" d="M145.48,166.89l-36.38-3.65v-20.27c.56-8.42,5.45-16.94,13.44-20.21,7.03-2.88,15.04-.75,22.45-1.34l.49.22v45.26Z"/>
  <path class="cls-1" d="M63.7,121.05c.16-.5,2.32-.08,2.79-.07,6.99.18,14.44-.44,21.34.14,9.65.81,16.65,12.95,16.84,21.83v35.03s-5.58-.72-5.58-.72l-.14-15.11-23.05-2.52-.08-32.07-12.11-.42v-6.09Z"/>
  <path class="cls-4" d="M75.87,77.44l28.79-3.01v19.7c-.4,8.06-5.14,17.4-12.82,20.69-4.97,2.13-10.69,1.01-15.97,1.29v-38.67Z"/>
  <g>
    <path class="cls-5" d="M249.51,97.17l-23.19,32.25h-2.34l-22.9-32.25v52.33h-10.91v-68.21h12.67l22.51,31.96,22.41-31.96h12.67v68.21h-10.91v-52.33Z"/>
    <path class="cls-5" d="M287.13,87.23c0,8.28-12.47,8.28-12.47,0s12.47-8.19,12.47,0ZM275.83,101.16v48.24h10.04v-48.24h-10.04Z"/>
    <path class="cls-5" d="M308.86,101.36l.68,6.33c3.51-6.14,8.96-7.41,14.13-7.41,4.68,0,9.16,1.66,11.89,4.09l-4.58,8.77c-2.44-1.95-4.77-2.92-8.48-2.92-6.92,0-12.96,4.29-12.96,13.16v26.02h-10.04v-48.04h9.35Z"/>
    <path class="cls-5" d="M351.74,101.36l.68,6.33c3.51-6.14,8.96-7.41,14.13-7.41,4.68,0,9.16,1.66,11.89,4.09l-4.58,8.77c-2.44-1.95-4.77-2.92-8.48-2.92-6.92,0-12.96,4.29-12.96,13.16v26.02h-10.04v-48.04h9.35Z"/>
    <path class="cls-5" d="M430.58,125.43c0,14.23-9.84,24.95-24.95,24.95s-24.75-10.72-24.75-24.95,9.84-25.04,24.75-25.04,24.95,10.91,24.95,25.04ZM390.91,125.43c0,8.58,5.55,15.59,14.71,15.59s14.81-7.02,14.81-15.59-6.04-15.79-14.81-15.79-14.71,7.31-14.71,15.79Z"/>
    <path class="cls-5" d="M450.55,101.36l.68,6.33c3.51-6.14,8.96-7.41,14.13-7.41,4.68,0,9.16,1.66,11.89,4.09l-4.58,8.77c-2.44-1.95-4.77-2.92-8.48-2.92-6.92,0-12.96,4.29-12.96,13.16v26.02h-10.04v-48.04h9.35Z"/>
  </g>
</svg>