<?xml version="1.0" encoding="UTF-8"?>
<svg id="Layer_1" data-name="Layer 1" xmlns="http://www.w3.org/2000/svg" xmlns:xlink="http://www.w3.org/1999/xlink" viewBox="0 0 245.42 231.22">
  <defs>
    <style>
      .cls-1 {
        fill: url(#radial-gradient-3);
      }

      .cls-2 {
        fill: url(#radial-gradient-2);
      }

      .cls-3 {
        fill: url(#radial-gradient);
      }

      .cls-4 {
        fill: #0ae8aa;
      }
    </style>
    <radialGradient id="radial-gradient" cx="103.68" cy="102.36" fx="103.68" fy="102.36" r="87.01" gradientUnits="userSpaceOnUse">
      <stop offset="0" stop-color="#2c19d8"/>
      <stop offset="1" stop-color="#1eb8ff"/>
    </radialGradient>
    <radialGradient id="radial-gradient-2" cx="103.68" cy="102.36" fx="103.68" fy="102.36" r="87.01" xlink:href="#radial-gradient"/>
    <radialGradient id="radial-gradient-3" cy="102.36" fy="102.36" r="87.01" xlink:href="#radial-gradient"/>
  </defs>
  <path class="cls-3" d="M127.67,21.61v24.06l47.67-4.48v59.2l24.84-.45v11.75c0,.4-.89.54-1.22.57-9.21.92-19.97-.71-29.34-.02-6.46.14-13.47.6-19.92.25-17.75-.99-29.85-16.57-31.21-33.47V22.85s9.17-1.25,9.17-1.25Z"/>
  <path class="cls-2" d="M175.34,192.27l-56.85-5.71v-31.68c.87-13.16,8.51-26.47,21-31.58,10.99-4.5,23.51-1.17,35.07-2.1l.77.35v70.73Z"/>
  <path class="cls-1" d="M47.54,120.64c.24-.79,3.62-.12,4.36-.1,10.92.29,22.57-.69,33.35.22,15.08,1.27,26.02,20.23,26.31,34.12v54.73s-8.73-1.13-8.73-1.13l-.22-23.62-36.02-3.93-.13-50.12-18.93-.66v-9.51Z"/>
  <path class="cls-4" d="M66.57,52.49l44.99-4.7v30.79c-.63,12.6-8.04,27.19-20.03,32.33-7.77,3.33-16.7,1.57-24.96,2.01v-60.43Z"/>
</svg>